<?xml version="1.0" encoding="UTF-8"?>
<svg xmlns="http://www.w3.org/2000/svg" xmlns:xlink="http://www.w3.org/1999/xlink" width="48pt" height="48pt" viewBox="0 0 48 48" version="1.1">
<g id="surface1">
<path style=" stroke:none;fill-rule:nonzero;fill:rgb(94.117647%,65.490196%,3.921569%);fill-opacity:1;" d="M 38.878906 5.171875 C 28.480469 -3.046875 13.390625 -1.28125 5.171875 9.117188 C -3.046875 19.515625 -1.28125 34.605469 9.117188 42.824219 C 19.515625 51.042969 34.605469 49.277344 42.824219 38.878906 C 51.042969 28.480469 49.277344 13.390625 38.878906 5.171875 Z M 38.878906 5.171875 "/>
<path style=" stroke:none;fill-rule:nonzero;fill:rgb(99.607843%,82.352941%,16.862745%);fill-opacity:1;" d="M 42.261719 22.058594 C 42.75 26.640625 41.511719 31.207031 38.769531 34.917969 C 32.75 43.0625 21.230469 44.792969 13.085938 38.773438 C 8.960938 35.726562 6.28125 31.050781 5.738281 25.945312 C 5.25 21.363281 6.488281 16.796875 9.230469 13.089844 C 12.144531 9.144531 16.421875 6.570312 21.273438 5.84375 C 26.121094 5.113281 30.96875 6.316406 34.914062 9.234375 C 39.039062 12.28125 41.714844 16.957031 42.261719 22.058594 Z M 42.261719 22.058594 "/>
<path style=" stroke:none;fill-rule:nonzero;fill:rgb(89.019608%,53.333333%,1.176471%);fill-opacity:1;" d="M 31.921875 28.300781 C 31.921875 26.367188 31.742188 24.402344 29.851562 23.101562 C 30.871094 22.132812 31.433594 20.601562 31.433594 18.707031 C 31.433594 16.683594 30.765625 15.199219 29.453125 14.300781 C 29.246094 14.164062 29.039062 14.039062 28.824219 13.933594 C 28.832031 13.875 28.835938 13.816406 28.835938 13.757812 L 28.835938 11.476562 C 28.835938 10.558594 28.089844 9.816406 27.175781 9.816406 C 26.257812 9.816406 25.515625 10.558594 25.515625 11.476562 L 25.515625 13.28125 C 24.625 13.246094 23.550781 13.242188 22.191406 13.25 L 22.191406 11.476562 C 22.191406 10.558594 21.449219 9.816406 20.53125 9.816406 C 19.613281 9.816406 18.871094 10.558594 18.871094 11.476562 L 18.871094 13.269531 C 18.628906 13.269531 18.382812 13.269531 18.128906 13.269531 C 16.996094 13.269531 16.074219 14.191406 16.074219 15.324219 C 16.074219 16.457031 16.996094 17.378906 18.128906 17.378906 L 18.621094 17.378906 L 18.621094 30.636719 L 18.132812 30.636719 C 16.996094 30.636719 16.074219 31.558594 16.074219 32.691406 C 16.074219 33.828125 16.996094 34.75 18.132812 34.75 L 18.871094 34.75 L 18.871094 36.519531 C 18.871094 37.4375 19.613281 38.179688 20.53125 38.179688 C 21.449219 38.179688 22.191406 37.4375 22.191406 36.519531 L 22.191406 34.75 L 25.515625 34.746094 L 25.515625 36.519531 C 25.515625 37.4375 26.257812 38.179688 27.175781 38.179688 C 28.089844 38.179688 28.835938 37.4375 28.835938 36.519531 L 28.835938 34.238281 C 28.835938 34.199219 28.832031 34.164062 28.828125 34.128906 C 30.789062 33.207031 31.921875 31.253906 31.921875 28.300781 Z M 22.464844 16.894531 C 25.722656 16.894531 27.585938 16.550781 27.585938 19.035156 C 27.585938 21.882812 25.851562 21.445312 22.464844 21.445312 Z M 22.464844 31.121094 L 22.464844 24.910156 C 26.554688 24.910156 28.078125 24.378906 28.078125 28.164062 C 28.078125 30.207031 27.242188 31.121094 25.367188 31.121094 Z M 22.464844 31.121094 "/>
<path style=" stroke:none;fill-rule:nonzero;fill:rgb(99.215686%,76.078431%,0.784314%);fill-opacity:1;" d="M 16.492188 38.773438 C 19.277344 40.832031 22.457031 41.984375 25.675781 42.28125 C 21.34375 42.683594 16.851562 41.558594 13.085938 38.773438 C 8.960938 35.726562 6.28125 31.050781 5.738281 25.949219 C 5.25 21.363281 6.488281 16.796875 9.230469 13.089844 C 12.144531 9.144531 16.421875 6.570312 21.273438 5.84375 C 22.769531 5.617188 24.261719 5.578125 25.734375 5.714844 C 25.382812 5.746094 25.027344 5.789062 24.675781 5.84375 C 19.824219 6.570312 15.546875 9.144531 12.632812 13.089844 C 9.890625 16.796875 8.652344 21.363281 9.140625 25.949219 C 9.6875 31.050781 12.363281 35.726562 16.492188 38.773438 Z M 16.492188 38.773438 "/>
</g>
</svg>
