<?xml version="1.0" encoding="UTF-8"?>
<svg xmlns="http://www.w3.org/2000/svg" xmlns:xlink="http://www.w3.org/1999/xlink" width="44pt" height="44pt" viewBox="0 0 44 44" version="1.1">
<g id="surface1">
<path style=" stroke:none;fill-rule:nonzero;fill:rgb(94.117647%,65.490196%,3.921569%);fill-opacity:1;" d="M 35.640625 4.742188 C 26.109375 -2.792969 12.273438 -1.175781 4.742188 8.355469 C -2.792969 17.886719 -1.175781 31.722656 8.355469 39.257812 C 17.886719 46.789062 31.722656 45.171875 39.257812 35.640625 C 46.789062 26.109375 45.171875 12.273438 35.640625 4.742188 Z M 35.640625 4.742188 "/>
<path style=" stroke:none;fill-rule:nonzero;fill:rgb(99.607843%,82.352941%,16.862745%);fill-opacity:1;" d="M 38.738281 20.222656 C 39.1875 24.421875 38.050781 28.605469 35.539062 32.007812 C 30.023438 39.472656 19.460938 41.058594 11.996094 35.542969 C 8.214844 32.75 5.757812 28.460938 5.257812 23.785156 C 4.8125 19.585938 5.949219 15.398438 8.460938 12 C 11.132812 8.382812 15.050781 6.023438 19.5 5.355469 C 23.945312 4.6875 28.386719 5.792969 32.003906 8.464844 C 35.785156 11.257812 38.238281 15.542969 38.738281 20.222656 Z M 38.738281 20.222656 "/>
<path style=" stroke:none;fill-rule:nonzero;fill:rgb(89.019608%,53.333333%,1.176471%);fill-opacity:1;" d="M 29.261719 25.941406 C 29.261719 24.171875 29.097656 22.371094 27.363281 21.175781 C 28.296875 20.285156 28.8125 18.882812 28.8125 17.148438 C 28.8125 15.292969 28.203125 13.933594 26.996094 13.109375 C 26.808594 12.980469 26.621094 12.871094 26.421875 12.773438 C 26.429688 12.71875 26.433594 12.667969 26.433594 12.613281 L 26.433594 10.519531 C 26.433594 9.679688 25.75 8.996094 24.910156 8.996094 C 24.070312 8.996094 23.386719 9.679688 23.386719 10.519531 L 23.386719 12.175781 C 22.574219 12.140625 21.585938 12.140625 20.34375 12.148438 L 20.34375 10.519531 C 20.34375 9.679688 19.660156 8.996094 18.820312 8.996094 C 17.980469 8.996094 17.296875 9.679688 17.296875 10.519531 L 17.296875 12.164062 C 17.078125 12.164062 16.851562 12.164062 16.621094 12.164062 C 15.582031 12.164062 14.734375 13.007812 14.734375 14.046875 C 14.734375 15.085938 15.582031 15.933594 16.621094 15.933594 L 17.070312 15.933594 L 17.070312 28.082031 L 16.621094 28.082031 C 15.582031 28.082031 14.734375 28.929688 14.734375 29.96875 C 14.734375 31.007812 15.582031 31.851562 16.621094 31.851562 L 17.296875 31.851562 L 17.296875 33.476562 C 17.296875 34.316406 17.980469 35 18.820312 35 C 19.660156 35 20.34375 34.316406 20.34375 33.476562 L 20.34375 31.851562 L 23.386719 31.851562 L 23.386719 33.476562 C 23.386719 34.316406 24.070312 35 24.910156 35 C 25.75 35 26.433594 34.316406 26.433594 33.476562 L 26.433594 31.382812 C 26.433594 31.351562 26.429688 31.316406 26.425781 31.285156 C 28.222656 30.4375 29.261719 28.648438 29.261719 25.941406 Z M 20.59375 15.488281 C 23.582031 15.488281 25.289062 15.171875 25.289062 17.449219 C 25.289062 20.058594 23.695312 19.65625 20.59375 19.65625 Z M 20.59375 28.527344 L 20.59375 22.832031 C 24.34375 22.832031 25.738281 22.347656 25.738281 25.816406 C 25.738281 27.691406 24.972656 28.527344 23.253906 28.527344 Z M 20.59375 28.527344 "/>
<path style=" stroke:none;fill-rule:nonzero;fill:rgb(99.215686%,76.078431%,0.784314%);fill-opacity:1;" d="M 15.117188 35.542969 C 17.667969 37.429688 20.585938 38.484375 23.535156 38.757812 C 19.5625 39.125 15.449219 38.09375 11.996094 35.542969 C 8.214844 32.75 5.757812 28.460938 5.257812 23.785156 C 4.8125 19.585938 5.949219 15.398438 8.460938 12 C 11.132812 8.382812 15.050781 6.023438 19.5 5.355469 C 20.871094 5.148438 22.242188 5.113281 23.589844 5.238281 C 23.265625 5.269531 22.941406 5.304688 22.621094 5.355469 C 18.171875 6.023438 14.253906 8.382812 11.582031 12 C 9.066406 15.398438 7.933594 19.585938 8.378906 23.785156 C 8.878906 28.460938 11.335938 32.75 15.117188 35.542969 Z M 15.117188 35.542969 "/>
</g>
</svg>
