<?xml version="1.0" encoding="UTF-8"?>
<svg xmlns="http://www.w3.org/2000/svg" xmlns:xlink="http://www.w3.org/1999/xlink" width="33pt" height="33pt" viewBox="0 0 33 33" version="1.1">
<g id="surface1">
<path style=" stroke:none;fill-rule:nonzero;fill:rgb(94.117647%,65.490196%,3.921569%);fill-opacity:1;" d="M 26.730469 3.554688 C 19.582031 -2.09375 9.207031 -0.882812 3.554688 6.269531 C -2.09375 13.417969 -0.882812 23.792969 6.269531 29.441406 C 13.417969 35.09375 23.792969 33.878906 29.441406 26.730469 C 35.09375 19.582031 33.878906 9.207031 26.730469 3.554688 Z M 26.730469 3.554688 "/>
<path style=" stroke:none;fill-rule:nonzero;fill:rgb(99.607843%,82.352941%,16.862745%);fill-opacity:1;" d="M 29.054688 15.164062 C 29.390625 18.316406 28.539062 21.457031 26.652344 24.003906 C 22.515625 29.605469 14.59375 30.792969 8.996094 26.65625 C 6.160156 24.5625 4.320312 21.347656 3.945312 17.839844 C 3.609375 14.6875 4.460938 11.550781 6.34375 9 C 8.347656 6.285156 11.289062 4.515625 14.625 4.015625 C 17.960938 3.515625 21.289062 4.34375 24.003906 6.347656 C 26.839844 8.441406 28.679688 11.65625 29.054688 15.164062 Z M 29.054688 15.164062 "/>
<path style=" stroke:none;fill-rule:nonzero;fill:rgb(89.019608%,53.333333%,1.176471%);fill-opacity:1;" d="M 21.949219 19.457031 C 21.949219 18.128906 21.824219 16.777344 20.523438 15.882812 C 21.222656 15.214844 21.609375 14.164062 21.609375 12.859375 C 21.609375 11.46875 21.152344 10.449219 20.246094 9.832031 C 20.105469 9.738281 19.964844 9.652344 19.816406 9.578125 C 19.820312 9.539062 19.824219 9.5 19.824219 9.460938 L 19.824219 7.890625 C 19.824219 7.257812 19.3125 6.746094 18.683594 6.746094 C 18.050781 6.746094 17.539062 7.257812 17.539062 7.890625 L 17.539062 9.132812 C 16.929688 9.105469 16.191406 9.105469 15.257812 9.109375 L 15.257812 7.890625 C 15.257812 7.257812 14.746094 6.746094 14.117188 6.746094 C 13.484375 6.746094 12.972656 7.257812 12.972656 7.890625 L 12.972656 9.121094 C 12.808594 9.121094 12.640625 9.121094 12.464844 9.121094 C 11.683594 9.121094 11.050781 9.757812 11.050781 10.535156 C 11.050781 11.316406 11.683594 11.949219 12.464844 11.949219 L 12.800781 11.949219 L 12.800781 21.0625 L 12.464844 21.0625 C 11.6875 21.0625 11.050781 21.695312 11.050781 22.476562 C 11.050781 23.253906 11.6875 23.890625 12.464844 23.890625 L 12.972656 23.890625 L 12.972656 25.109375 C 12.972656 25.738281 13.484375 26.25 14.117188 26.25 C 14.746094 26.25 15.257812 25.738281 15.257812 25.109375 L 15.257812 23.890625 L 17.539062 23.890625 L 17.539062 25.109375 C 17.539062 25.738281 18.050781 26.25 18.683594 26.25 C 19.3125 26.25 19.824219 25.738281 19.824219 25.109375 L 19.824219 23.539062 C 19.824219 23.511719 19.820312 23.488281 19.820312 23.464844 C 21.167969 22.828125 21.949219 21.488281 21.949219 19.457031 Z M 15.445312 11.617188 C 17.683594 11.617188 18.964844 11.378906 18.964844 13.085938 C 18.964844 15.042969 17.773438 14.742188 15.445312 14.742188 Z M 15.445312 21.394531 L 15.445312 17.125 C 18.257812 17.125 19.304688 16.761719 19.304688 19.363281 C 19.304688 20.769531 18.730469 21.394531 17.441406 21.394531 Z M 15.445312 21.394531 "/>
<path style=" stroke:none;fill-rule:nonzero;fill:rgb(99.215686%,76.078431%,0.784314%);fill-opacity:1;" d="M 11.335938 26.65625 C 13.25 28.070312 15.4375 28.863281 17.652344 29.070312 C 14.671875 29.34375 11.585938 28.570312 8.996094 26.65625 C 6.160156 24.5625 4.320312 21.347656 3.945312 17.839844 C 3.609375 14.6875 4.460938 11.550781 6.34375 9 C 8.347656 6.285156 11.289062 4.515625 14.625 4.015625 C 15.652344 3.863281 16.679688 3.832031 17.691406 3.929688 C 17.449219 3.949219 17.207031 3.980469 16.964844 4.015625 C 13.628906 4.515625 10.6875 6.285156 8.6875 9 C 6.800781 11.550781 5.949219 14.6875 6.285156 17.839844 C 6.660156 21.347656 8.5 24.5625 11.335938 26.65625 Z M 11.335938 26.65625 "/>
</g>
</svg>
